<svg width="13" height="14" viewBox="0 0 13 14" fill="none" xmlns="http://www.w3.org/2000/svg">
<g clip-path="url(#clip0)">
<path d="M12.8658 8.10652C13.2905 4.59468 12.6627 2.3761 11.5326 1.37428C9.70813 -0.337926 3.55161 -0.592935 1.36894 1.45078C0.390249 2.44896 0.0467839 3.91708 0.00615899 5.73129C-0.0307728 7.54914 -0.0750908 10.9517 3.13797 11.877H3.14167L3.13797 13.2868C3.13797 13.2868 3.11581 13.8588 3.48513 13.9717C3.90985 14.1065 4.0982 13.8406 5.41666 12.2923C7.61779 12.4817 9.30558 12.0482 9.49762 11.9863C9.9445 11.8369 12.4595 11.5091 12.8658 8.10652ZM5.63456 11.2978C5.63456 11.2978 4.24223 13.01 3.81013 13.4544C3.66979 13.6001 3.51468 13.5856 3.51468 13.2978C3.51468 13.1083 3.52576 10.9553 3.52576 10.9553C0.800192 10.1903 0.958998 7.29049 0.988544 5.77501C1.01809 4.25952 1.29877 3.01726 2.12973 2.17938C4.0428 0.408886 9.44222 0.805972 10.8198 2.08102C12.5002 3.55278 11.9019 7.70579 11.9056 7.84787C11.5584 10.6894 9.52347 10.8679 9.14677 10.9918C8.98796 11.0464 7.49961 11.4216 5.63456 11.2978Z" fill="black"/>
<path d="M6.40806 2.51367C6.17908 2.51367 6.17908 2.8634 6.40806 2.86704C8.17341 2.88161 9.62852 4.09473 9.64329 6.32059C9.64329 6.55374 9.99045 6.55374 9.99045 6.31695C9.96829 3.91622 8.38022 2.5246 6.40806 2.51367Z" fill="black"/>
<path d="M8.72626 5.94897C8.72256 6.18212 9.06972 6.19305 9.07342 5.95626C9.10296 4.63385 8.27569 3.5446 6.72086 3.42802C6.49188 3.41345 6.46972 3.76318 6.69501 3.78139C8.04671 3.8834 8.7558 4.7905 8.72626 5.94897Z" fill="black"/>
<path d="M8.35693 7.45364C8.06517 7.28607 7.76602 7.39171 7.64414 7.55565L7.38562 7.88351C7.25636 8.05109 7.01261 8.02923 7.01261 8.02923C5.23249 7.56293 4.75607 5.72687 4.75607 5.72687C4.75607 5.72687 4.73391 5.47914 4.89641 5.34435L5.21772 5.08206C5.38022 4.95455 5.47993 4.65219 5.31743 4.3571C4.88164 3.5775 4.58618 3.30792 4.43845 3.10392C4.27965 2.91084 4.04328 2.86712 3.79953 2.99827H3.79584C3.28618 3.29335 2.72481 3.84709 2.90578 4.41539C3.21232 5.01284 3.77368 6.92541 5.56118 8.36803C6.40323 9.04927 7.73278 9.74872 8.29784 9.91266L8.30153 9.91994C8.8592 10.1021 9.39841 9.53014 9.69017 9.0092V8.99827C9.81943 8.7469 9.77511 8.51011 9.58676 8.35346C9.25068 8.03288 8.74841 7.67951 8.35693 7.45364Z" fill="black"/>
<path d="M6.96419 4.7322C7.53294 4.76498 7.80624 5.05643 7.83579 5.65752C7.84687 5.89068 8.19033 5.8761 8.18295 5.64295C8.14602 4.8597 7.72868 4.42254 6.98266 4.37883C6.75737 4.36425 6.73521 4.71763 6.96419 4.7322Z" fill="black"/>
</g>
<defs>
<clipPath id="clip0">
<rect width="13" height="14" fill="white"/>
</clipPath>
</defs>
</svg>
