<svg width="12" height="12" viewBox="0 0 12 12" fill="none" xmlns="http://www.w3.org/2000/svg">
<path d="M6.00234 0H6C2.69063 0 0 2.69063 0 6C0 7.3125 0.421875 8.52891 1.14141 9.51562L0.39375 11.7445L2.7 11.0063C3.64922 11.6367 4.78125 12 6.00234 12C9.30938 12 12 9.30937 12 6C12 2.69063 9.30938 0 6.00234 0ZM9.49219 8.47266C9.34688 8.88047 8.77266 9.22031 8.31562 9.31875C8.00156 9.38438 7.59375 9.43828 6.21328 8.86641C4.45078 8.13516 3.31406 6.34453 3.225 6.22734C3.14063 6.11016 2.5125 5.27812 2.5125 4.41797C2.5125 3.55781 2.95078 3.13828 3.12656 2.95781C3.27187 2.81016 3.51094 2.74219 3.74063 2.74219C3.81563 2.74219 3.88125 2.74688 3.94219 2.74922C4.11797 2.75625 4.20703 2.76797 4.32422 3.04453C4.46953 3.39375 4.82109 4.25391 4.86328 4.34297C4.90547 4.43203 4.94766 4.55156 4.88906 4.66875C4.83281 4.78828 4.78359 4.84219 4.69453 4.94297C4.60547 5.04609 4.52109 5.12344 4.43437 5.23359C4.35234 5.32969 4.26094 5.43047 4.36406 5.60625C4.46719 5.77969 4.81875 6.35391 5.33672 6.81562C6.00703 7.41094 6.54844 7.60312 6.74297 7.68281C6.88828 7.74375 7.05938 7.72969 7.16484 7.61719C7.29844 7.47188 7.46484 7.23281 7.63359 6.99609C7.75313 6.82734 7.90547 6.80625 8.06484 6.86484C8.22656 6.92109 9.08438 7.34531 9.26016 7.43203C9.43594 7.52109 9.55312 7.56328 9.59531 7.63594C9.6375 7.71562 9.6375 8.0625 9.49219 8.47266Z" fill="black"/>
</svg>
